<?xml version="1.0" encoding="UTF-8" standalone="no"?>
<!-- Created with Inkscape (http://www.inkscape.org/) -->

<svg
   width="70mm"
   height="70mm"
   viewBox="0 0 70 70"
   version="1.1"
   id="svg5"
   inkscape:version="1.1 (c68e22c387, 2021-05-23)"
   sodipodi:docname="minesweeper.svg"
   xmlns:inkscape="http://www.inkscape.org/namespaces/inkscape"
   xmlns:sodipodi="http://sodipodi.sourceforge.net/DTD/sodipodi-0.dtd"
   xmlns="http://www.w3.org/2000/svg"
   xmlns:svg="http://www.w3.org/2000/svg">
  <sodipodi:namedview
     id="namedview7"
     pagecolor="#ffffff"
     bordercolor="#666666"
     borderopacity="1.0"
     inkscape:pageshadow="2"
     inkscape:pageopacity="0.0"
     inkscape:pagecheckerboard="0"
     inkscape:document-units="mm"
     showgrid="false"
     fit-margin-top="0"
     fit-margin-left="0"
     fit-margin-right="0"
     fit-margin-bottom="0"
     inkscape:zoom="1.0230034"
     inkscape:cx="179.3738"
     inkscape:cy="245.84474"
     inkscape:window-width="2400"
     inkscape:window-height="1271"
     inkscape:window-x="2391"
     inkscape:window-y="-9"
     inkscape:window-maximized="1"
     inkscape:current-layer="layer1" />
  <defs
     id="defs2" />
  <g
     inkscape:label="Layer 1"
     inkscape:groupmode="layer"
     id="layer1"
     transform="translate(-1.2985777,-0.22809922)">
    <path
       style="fill:#000000;stroke-width:0.350066"
       d="m 34.898574,69.527839 c -0.635635,-0.635877 -0.699995,-1.167115 -0.699995,-5.777203 v -5.076922 h -0.911982 c -2.536439,0 -7.495244,-1.918042 -10.749428,-4.157834 l -1.521911,-1.047498 -1.195839,1.166926 c -1.70354,1.662343 -2.557999,1.83223 -3.661749,0.72805 -1.101667,-1.102075 -0.933898,-1.958844 0.714737,-3.650089 L 18.025843,50.530016 16.43108,48.063815 C 14.671088,45.342123 13.271347,41.710166 12.956069,39.047101 L 12.751076,37.31559 H 7.7248262 c -4.5595832,0 -5.0912437,-0.06501 -5.726244,-0.700261 -0.3850045,-0.38515 -0.7000045,-1.01539 -0.7000045,-1.400531 0,-0.385151 0.315,-1.01539 0.7000045,-1.400531 0.6350102,-0.635262 1.1666608,-0.700271 5.7268095,-0.700271 h 5.0268053 l 0.230501,-1.961901 c 0.306041,-2.604914 1.894584,-6.61424 3.626062,-9.151823 l 1.402737,-2.055781 -1.356464,-1.454752 c -1.590269,-1.705498 -1.666038,-2.254392 -0.475626,-3.445257 1.079453,-1.079863 1.946304,-0.90286 3.631817,0.741599 l 1.187634,1.158717 2.02733,-1.384363 c 2.51748,-1.719065 5.745601,-3.051451 8.721691,-3.599829 l 2.275699,-0.419313 0.175001,-5.1739291 c 0.155615,-4.6010068 0.250224,-5.2288446 0.85439,-5.66990306 0.942053,-0.6877055 1.821851,-0.61976865 2.645603,0.20429687 0.633482,0.63372319 0.700004,1.16710439 0.700004,5.61311199 0,3.6336833 0.113916,4.9436983 0.437498,5.0313163 0.24063,0.06511 1.303753,0.281911 2.3625,0.481672 2.879815,0.543366 5.560361,1.65481 8.09938,3.358284 l 2.274409,1.525953 1.449556,-1.352643 c 2.008579,-1.874302 3.595009,-1.695354 4.115081,0.464174 0.186768,0.775523 -0.01816,1.204085 -1.162305,2.431177 l -1.389036,1.489688 1.402737,2.055781 c 1.731478,2.537583 3.320021,6.546909 3.626062,9.151823 l 0.230491,1.961901 h 5.026815 c 4.560148,0 5.091799,0.06501 5.726809,0.700271 0.385005,0.385141 0.700005,1.01538 0.700005,1.400531 0,0.385141 -0.315,1.015381 -0.700005,1.400531 -0.63501,0.635252 -1.166661,0.700261 -5.726244,0.700261 H 59.84608 l -0.204993,1.731511 c -0.315288,2.663065 -1.715029,6.295022 -3.475011,9.016714 l -1.594773,2.466201 1.153445,1.183253 c 1.648636,1.691245 1.816395,2.548014 0.714738,3.650089 -1.10376,1.10418 -1.958209,0.934293 -3.661749,-0.72805 l -1.195849,-1.166926 -1.521902,1.047498 c -3.254183,2.239792 -8.212988,4.157834 -10.749428,4.157834 h -0.911982 v 5.076922 c 0,4.610088 -0.06439,5.141326 -0.700004,5.777203 -0.384995,0.38514 -1.014995,0.70026 -1.399999,0.70026 -0.384995,0 -1.014995,-0.31512 -1.399999,-0.70026 z M 32.275383,31.910894 c 3.977969,-3.035303 1.042526,-9.717322 -3.864311,-8.796447 -2.57052,0.482416 -4.235049,2.879986 -3.922897,5.650489 0.42468,3.76916 4.704484,5.498161 7.787208,3.145958 z"
       id="path872"
       inkscape:export-filename="C:\Users\kosatka\00_DATADATA\01_projects\01_dev\00_misc\minesweeper-react\src\assets\minesweeper.png"
       inkscape:export-xdpi="96"
       inkscape:export-ydpi="96" />
  </g>
</svg>
